<svg width="33" height="34" viewBox="0 0 33 34" fill="none" xmlns="http://www.w3.org/2000/svg">
<path d="M16.6586 32.7723C25.4323 32.7723 32.5448 25.6598 32.5448 16.8862C32.5448 8.11248 25.4323 1 16.6586 1C7.88494 1 0.772461 8.11248 0.772461 16.8862C0.772461 25.6598 7.88494 32.7723 16.6586 32.7723Z" fill="white" stroke="#E7E7E7" stroke-width="0.5"/>
<path d="M21.9337 11H11.6475C11.1614 11 10.7725 11.3871 10.7725 11.871V22.129C10.7725 22.5935 11.1614 23 11.6475 23H21.8948C22.3809 23 22.7698 22.6129 22.7698 22.129V11.8516C22.8087 11.3871 22.4198 11 21.9337 11ZM14.3308 21.2H12.5614V15.4903H14.3308V21.2ZM13.4364 14.6968C12.853 14.6968 12.4058 14.2323 12.4058 13.671C12.4058 13.1097 12.8725 12.6452 13.4364 12.6452C14.0003 12.6452 14.4669 13.1097 14.4669 13.671C14.4669 14.2323 14.0392 14.6968 13.4364 14.6968ZM21.0392 21.2H19.2697V18.4323C19.2697 17.7742 19.2503 16.9032 18.3364 16.9032C17.4031 16.9032 17.267 17.6387 17.267 18.3742V21.2H15.4975V15.4903H17.2281V16.2839H17.2475C17.5003 15.8194 18.0642 15.3548 18.9392 15.3548C20.7475 15.3548 21.0781 16.5161 21.0781 18.1032V21.2H21.0392Z" fill="#637381"/>
</svg>
