<svg width="34" height="34" viewBox="0 0 34 34" fill="none" xmlns="http://www.w3.org/2000/svg">
<path d="M16.8862 32.7723C25.6598 32.7723 32.7723 25.6598 32.7723 16.8862C32.7723 8.11248 25.6598 1 16.8862 1C8.11248 1 1 8.11248 1 16.8862C1 25.6598 8.11248 32.7723 16.8862 32.7723Z" fill="white" stroke="#E7E7E7" stroke-width="0.5"/>
<path d="M23.7065 13.5668C23.5484 12.9447 23.0742 12.4608 22.4645 12.2995C21.3806 12 17 12 17 12C17 12 12.6194 12 11.5355 12.2995C10.9258 12.4608 10.4516 12.9447 10.2935 13.5668C10 14.6959 10 17 10 17C10 17 10 19.3272 10.2935 20.4332C10.4516 21.0553 10.9258 21.5392 11.5355 21.7005C12.6194 22 17 22 17 22C17 22 21.3806 22 22.4645 21.7005C23.0742 21.5392 23.5484 21.0553 23.7065 20.4332C24 19.3272 24 17 24 17C24 17 24 14.6959 23.7065 13.5668ZM15.6 19.1429V14.8571L19.2355 17L15.6 19.1429Z" fill="#637381"/>
</svg>
